<mxfile host="c0056332-6844-4e96-b198-c5569e41372a" modified="2020-07-30T10:03:53.717Z" agent="5.0 (X11; Linux x86_64) AppleWebKit/537.36 (KHTML, like Gecko) Code/1.47.2 Chrome/78.0.3904.130 Electron/7.3.2 Safari/537.36" etag="jMPLvUr7Mi5D7_jFHYJT" version="13.1.3">
    <diagram id="CtJJluH0880Qc2ZJ4rnU" name="Page-1">
        <mxGraphModel dx="828" dy="1713" grid="1" gridSize="10" guides="1" tooltips="1" connect="1" arrows="1" fold="1" page="1" pageScale="1" pageWidth="850" pageHeight="1100" math="0" shadow="0">
            <root>
                <mxCell id="0"/>
                <mxCell id="1" parent="0"/>
                <mxCell id="6" value="" style="whiteSpace=wrap;html=1;aspect=fixed;fillColor=#6166a2;" parent="1" vertex="1">
                    <mxGeometry x="20" y="-20" width="850" height="850" as="geometry"/>
                </mxCell>
                <mxCell id="7" value="" style="rounded=1;whiteSpace=wrap;html=1;fillColor=#E3E3E3;" parent="1" vertex="1">
                    <mxGeometry x="130" y="130" width="550" height="430" as="geometry"/>
                </mxCell>
                <mxCell id="8" value="Username" style="rounded=0;whiteSpace=wrap;html=1;fillColor=#E3E3E3;strokeColor=#000000;align=center;fontColor=#000000;" parent="1" vertex="1">
                    <mxGeometry x="265" y="250" width="320" height="60" as="geometry"/>
                </mxCell>
                <mxCell id="9" value="Password" style="rounded=0;whiteSpace=wrap;html=1;strokeColor=#000000;fillColor=#E3E3E3;fontColor=#000000;" parent="1" vertex="1">
                    <mxGeometry x="265" y="330" width="320" height="60" as="geometry"/>
                </mxCell>
                <mxCell id="11" value="&lt;h1&gt;Heading&lt;/h1&gt;&lt;p&gt;Lorem ipsum dolor sit amet, consectetur adipisicing elit, sed do eiusmod tempor incididunt ut labore et dolore magna aliqua.&lt;/p&gt;" style="text;html=1;strokeColor=none;fillColor=none;spacing=5;spacingTop=-20;whiteSpace=wrap;overflow=hidden;rounded=0;fontColor=#000000;" parent="1" vertex="1">
                    <mxGeometry x="290" y="130" width="190" height="80" as="geometry"/>
                </mxCell>
                <mxCell id="13" value="Button" style="rounded=1;whiteSpace=wrap;html=1;strokeColor=#000000;fillColor=#6166a2;fontColor=#000000;align=center;" parent="1" vertex="1">
                    <mxGeometry x="498" y="490" width="87" height="40" as="geometry"/>
                </mxCell>
                <mxCell id="14" value="" style="rounded=1;whiteSpace=wrap;html=1;strokeColor=#000000;fillColor=#FFFFFF;" vertex="1" parent="1">
                    <mxGeometry x="265" y="410" width="315" height="40" as="geometry"/>
                </mxCell>
                <mxCell id="15" value="" style="triangle;whiteSpace=wrap;html=1;strokeColor=#000000;fillColor=#6166a2;direction=south;" vertex="1" parent="1">
                    <mxGeometry x="550" y="425" width="20" height="10" as="geometry"/>
                </mxCell>
                <mxCell id="16" value="&lt;ul&gt;&lt;li&gt;Value 1&lt;/li&gt;&lt;li&gt;Value 2&lt;/li&gt;&lt;li&gt;Value 3&lt;/li&gt;&lt;/ul&gt;" style="text;strokeColor=none;fillColor=none;html=1;whiteSpace=wrap;verticalAlign=middle;overflow=hidden;fontColor=#000000;" vertex="1" parent="1">
                    <mxGeometry x="250" y="450" width="130" height="55" as="geometry"/>
                </mxCell>
            </root>
        </mxGraphModel>
    </diagram>
</mxfile>